# xmcd
#
# Track frame offsets: 
#        150
#        22474
#        44313
#        68810
#        90320
#        112735
#        136233
#        156520
#        182858
#        209012
#        227980
#        246240
#        271375
#        288209
#
# Disc length: 4080 seconds
#
# Revision: 0
# Processed by: cddbd v1.5.2PL0 Copyright (c) Steve Scherf et al.
# Submitted via: ExactAudioCopyFreeDBPlugin 1.0
#
DISCID=cf0fee0e
DTITLE=Fonzi Thornton - The Leader [Bonus Tracks]
DYEAR=1983
DGENRE=Soul
TTITLE0=The Leader
TTITLE1=Be My Baby
TTITLE2=Beverly
TTITLE3=Sha 'n' Da (Happly Love Song)
TTITLE4=(Uh-Oh) There Goes My Heart
TTITLE5=Sayin' Goodbye (To Lonely Nites)
TTITLE6=Perfect Lover
TTITLE7=Forever Like This
TTITLE8=Beverly [12" Instrumental]
TTITLE9=Beverly [7" Instrumental]
TTITLE10=Beverly [7" Version]
TTITLE11=(Uh-Oh) There Goes My Heart [12" Instrumental]
TTITLE12=(Uh-Oh) There Goes My Heart [7" Version]
TTITLE13=Sayin' Goodbye (To Lonely Nites) [7" Version]
EXTD=
EXTT0=
EXTT1=
EXTT2=
EXTT3=
EXTT4=
EXTT5=
EXTT6=
EXTT7=
EXTT8=
EXTT9=
EXTT10=
EXTT11=
EXTT12=
EXTT13=
PLAYORDER=
